<?xml version="1.0" encoding="utf-8"?>
<svg viewBox="0 0 190 40" xmlns="http://www.w3.org/2000/svg">
  <polygon fill-rule="nonzero" points="32.71 11.865 32.703 6.94 23.767 1 23.767 4.8 29.661 8.747 29.666 11.772 26.927 13.657 25.059 12.271 25.059 9.924 22.015 7.806 22.015 12.079 17.189 15.09 17.18 23.045 13.768 24.998 12.017 23.603 12.017 21.3 14.091 19.855 14.091 19.836 14.091 16.272 10.359 18.811 7.507 16.924 4.901 18.659 8.972 21.494 8.972 23.235 6.038 25.254 3.044 23.193 3.044 16.333 7.489 13.273 7.493 10.329 13.193 14.062 17.985 10.819 15.063 9.086 13.152 10.397 8.989 7.597 13.684 4.813 17.751 7.238 17.751 3.622 13.688 1.199 4.453 6.676 4.447 11.602 0 14.665 0 24.86 4.447 27.923 4.453 32.85 13.389 38.788 13.389 34.991 7.495 31.044 7.491 28.02 10.229 26.134 12.097 27.52 12.097 29.867 15.141 31.984 15.141 27.712 20.036 24.701 20.09 16.745 23.388 14.792 25.139 16.187 25.139 18.49 23.066 19.935 23.066 19.954 23.066 23.519 26.797 20.979 29.65 22.866 32.255 21.131 28.183 18.294 28.183 16.556 31.118 14.537 34.112 16.598 34.112 23.458 29.668 26.518 29.664 29.461 23.963 25.726 19.172 28.948 22.093 30.679 24.004 29.393 28.167 32.193 23.473 34.977 19.405 32.552 19.405 36.167 23.468 38.589 32.703 33.115 32.71 28.188 37.156 25.125 37.156 14.928" fill="#AC6AFF" style="" transform="matrix(1, 0, 0, 1, 0, -8.881784197001252e-16)"/>
  <text style="white-space: pre; fill: rgb(51, 51, 51); font-family: Arial, sans-serif; font-size: 28px;" x="94.789" y="57.084" transform="matrix(1, 0, 0, 1, 0, -8.881784197001252e-16)"> </text>
  <text style="white-space: pre; fill: rgb(51, 51, 51); font-family: Arial, sans-serif; font-size: 28px;" x="71.303" y="35.915" transform="matrix(1, 0, 0, 1, 0, -8.881784197001252e-16)"> </text>
  <text style="fill: rgb(255, 255, 255); font-family: Arial, sans-serif; font-size: 24px; text-transform: capitalize; white-space: pre;" x="31.498" y="28.753" transform="matrix(1, 0, 0, 1, 0, -8.881784197001252e-16)"> DigitalDwapar</text>
</svg>